<svg width="16" height="13" viewBox="0 0 16 13" fill="none" xmlns="http://www.w3.org/2000/svg">
<path d="M16 1.53425C15.5544 2.19471 15.0078 2.75771 14.3601 3.22327C14.3665 3.34814 14.3697 3.48926 14.3697 3.64665C14.3697 4.52113 14.2418 5.39667 13.9859 6.27327C13.7301 7.14988 13.3392 7.98895 12.8134 8.79047C12.2876 9.592 11.6612 10.3021 10.9344 10.9207C10.2075 11.5394 9.33376 12.0326 8.31316 12.4005C7.29257 12.7684 6.19877 12.9524 5.03175 12.9524C3.21044 12.9524 1.53319 12.4624 0 11.4824C0.272123 11.5126 0.533112 11.5276 0.782966 11.5276C2.30453 11.5276 3.66352 11.0606 4.85996 10.1265C4.15052 10.1135 3.51517 9.8959 2.9539 9.47358C2.39262 9.05128 2.00637 8.51165 1.79513 7.85469C2.00393 7.89433 2.21 7.91414 2.41335 7.91414C2.70606 7.91414 2.99408 7.8761 3.27742 7.80001C2.52032 7.6489 1.89224 7.2731 1.39318 6.67263C0.894134 6.07217 0.644613 5.37912 0.644613 4.59348V4.55299C1.10933 4.80941 1.60501 4.94581 2.13168 4.96218C1.68318 4.66421 1.32758 4.27564 1.0649 3.79648C0.802193 3.31732 0.670841 2.79879 0.670841 2.24088C0.670841 1.65247 0.818794 1.10455 1.1147 0.597117C1.93804 1.60401 2.93568 2.40875 4.10763 3.01133C5.27959 3.61393 6.53689 3.94859 7.87952 4.01532C7.82225 3.77749 7.79357 3.5293 7.79346 3.27076C7.79346 2.36801 8.11403 1.5972 8.75517 0.95832C9.39631 0.31944 10.1698 0 11.0757 0C12.0241 0 12.8229 0.344149 13.4722 1.03245C14.2141 0.886007 14.9087 0.621135 15.5561 0.237831C15.3066 1.02007 14.826 1.62351 14.1143 2.04816C14.7685 1.97069 15.397 1.79938 16 1.53425H16Z" fill="#FDFDFD"/>
</svg>
