<svg width="16" height="16" viewBox="0 0 16 16" fill="none" xmlns="http://www.w3.org/2000/svg">
<path d="M8.33357 5.00004C10.0861 5.00004 10.8336 5.74754 10.8336 7.50004H12.5002C12.5002 4.81254 11.0211 3.33337 8.33357 3.33337V5.00004ZM11.1852 9.53587C11.0251 9.39033 10.8147 9.31271 10.5984 9.3194C10.3821 9.32608 10.1769 9.41655 10.0261 9.5717L8.0319 11.6225C7.5519 11.5309 6.5869 11.23 5.59357 10.2392C4.60023 9.24504 4.2994 8.27754 4.21024 7.80087L6.2594 5.80587C6.41474 5.65514 6.50535 5.44989 6.51204 5.23354C6.51872 5.0172 6.44097 4.80674 6.29524 4.6467L3.21607 1.26087C3.07027 1.10033 2.86763 1.00296 2.6512 0.989419C2.43476 0.975882 2.22157 1.04725 2.0569 1.18837L0.248568 2.7392C0.104494 2.8838 0.0185013 3.07625 0.00690163 3.28004C-0.00559836 3.48837 -0.243932 8.42337 3.58274 12.2517C6.92107 15.5892 11.1027 15.8334 12.2544 15.8334C12.4227 15.8334 12.5261 15.8284 12.5536 15.8267C12.7573 15.8153 12.9497 15.7289 13.0936 15.5842L14.6436 13.775C14.7848 13.6105 14.8563 13.3973 14.8429 13.1809C14.8295 12.9645 14.7323 12.7618 14.5719 12.6159L11.1852 9.53587Z" fill="#4F4F4F"/>
<path d="M13.8293 7.20615L15.4923 7.31749C15.7524 3.43199 12.7283 0.285973 8.45703 0L8.35561 1.51482C11.7331 1.74094 14.035 4.13411 13.8293 7.20615Z" fill="#4F4F4F"/>
</svg>
