<svg width="16" height="12" viewBox="0 0 16 12" fill="none" xmlns="http://www.w3.org/2000/svg">
<path d="M14.8888 0H0.5112C0.375635 0.000158886 0.245672 0.0540959 0.149832 0.149973C0.0539919 0.245851 0.000105858 0.375836 0 0.5114V1.5402C0 1.5876 0.0514 1.642 0.0934 1.664L7.6506 5.9806C7.66996 5.99166 7.6919 5.99739 7.7142 5.9972C7.73699 5.99726 7.75937 5.99118 7.779 5.9796L15.1078 1.6682C15.149 1.6452 15.2582 1.5844 15.2992 1.5564C15.3488 1.5226 15.4 1.492 15.4 1.4314V0.5112C15.3998 0.37567 15.3459 0.245737 15.2501 0.149903C15.1543 0.0540685 15.0243 0.000158793 14.8888 0Z" fill="#4F4F4F"/>
<path d="M15.3358 3.09114C15.3161 3.07992 15.2938 3.07408 15.2711 3.07422C15.2485 3.07436 15.2263 3.08047 15.2068 3.09194L11.0594 5.53214C11.0428 5.54177 11.0287 5.55499 11.018 5.57084C11.0072 5.58668 11.0002 5.60474 10.9975 5.62366C10.9947 5.64258 10.9962 5.66189 11.0019 5.68015C11.0076 5.69841 11.0173 5.71515 11.0304 5.72914L15.1784 10.2005C15.1902 10.2135 15.2047 10.2237 15.2208 10.2308C15.2368 10.2378 15.2542 10.2414 15.2718 10.2413C15.3056 10.2413 15.3381 10.2278 15.3621 10.2038C15.386 10.1799 15.3995 10.1474 15.3996 10.1135V3.20214C15.3996 3.17965 15.3938 3.15755 15.3826 3.13805C15.3714 3.11856 15.3552 3.10238 15.3358 3.09114Z" fill="#4F4F4F"/>
<path d="M9.86495 6.35172C9.84526 6.33027 9.81881 6.31623 9.79002 6.31194C9.76123 6.30764 9.73184 6.31335 9.70675 6.32812L8.04435 7.30632C7.94695 7.36259 7.83659 7.39257 7.7241 7.39331C7.61162 7.39404 7.50087 7.36551 7.40275 7.31052L5.93975 6.47472C5.91613 6.46126 5.88884 6.45568 5.86184 6.45877C5.83483 6.46186 5.80951 6.47347 5.78955 6.49192L0.233947 11.6451C0.219383 11.6587 0.2082 11.6756 0.201291 11.6943C0.194382 11.713 0.191937 11.733 0.194151 11.7528C0.196366 11.7727 0.203179 11.7917 0.214046 11.8084C0.224914 11.8251 0.239536 11.8391 0.256747 11.8491C0.343147 11.8999 0.426547 11.9241 0.511347 11.9241H14.7419C14.7668 11.9242 14.7912 11.9169 14.812 11.9032C14.8328 11.8895 14.8491 11.87 14.8589 11.8471C14.8689 11.8244 14.872 11.7992 14.8678 11.7747C14.8636 11.7502 14.8523 11.7275 14.8353 11.7093L9.86495 6.35172Z" fill="#4F4F4F"/>
<path d="M4.5668 5.88244C4.58152 5.86884 4.59283 5.85196 4.59982 5.83318C4.60681 5.8144 4.60928 5.79424 4.60704 5.77433C4.60481 5.75441 4.59791 5.7353 4.58693 5.71854C4.57594 5.70178 4.56117 5.68784 4.5438 5.67784L0.190602 3.19144C0.171174 3.18041 0.149191 3.17468 0.126851 3.17481C0.104511 3.17494 0.0825971 3.18093 0.0633006 3.19219C0.0440042 3.20345 0.0280016 3.21958 0.0168933 3.23896C0.00578507 3.25834 -3.94986e-05 3.2803 2.03934e-06 3.30264V9.82664C-0.000138915 9.85156 0.00702976 9.87597 0.0206207 9.89685C0.0342116 9.91774 0.0536281 9.93418 0.0764671 9.94414C0.099306 9.9541 0.124565 9.95715 0.149117 9.9529C0.173669 9.94865 0.196437 9.9373 0.214602 9.92024L4.5668 5.88244Z" fill="#4F4F4F"/>
</svg>
