<svg width="27" height="15" viewBox="0 0 27 15" fill="none" xmlns="http://www.w3.org/2000/svg">
<path d="M26.0549 13.3791C25.9842 13.2607 25.5472 12.311 23.4439 10.3589C21.242 8.31472 21.5378 8.64665 24.1899 5.11213C25.8051 2.95954 26.4509 1.64498 26.2488 1.08301C26.0565 0.547324 24.8685 0.688639 24.8685 0.688639L20.9183 0.711644C20.9183 0.711644 20.6258 0.672207 20.4072 0.80202C20.1953 0.930189 20.0589 1.22596 20.0589 1.22596C20.0589 1.22596 19.4328 2.89217 18.5981 4.3086C16.8382 7.29758 16.1333 7.45533 15.8457 7.26965C15.1769 6.83749 15.3445 5.53114 15.3445 4.60438C15.3445 1.70742 15.7833 0.499671 14.4884 0.187464C14.0579 0.0839423 13.7424 0.014928 12.6431 0.00342559C11.2333 -0.0113632 10.0387 0.00835518 9.36331 0.338638C8.91307 0.558826 8.56635 1.05014 8.77833 1.07808C9.0396 1.11258 9.63115 1.23747 9.945 1.6647C10.3509 2.21517 10.3361 3.45414 10.3361 3.45414C10.3361 3.45414 10.5694 6.86378 9.79218 7.28772C9.25814 7.57857 8.52692 6.98537 6.95766 4.27245C6.15414 2.88395 5.54616 1.34756 5.54616 1.34756C5.54616 1.34756 5.42949 1.06165 5.2208 0.908828C4.96775 0.723146 4.61282 0.663991 4.61282 0.663991L0.856473 0.686996C0.856473 0.686996 0.292856 0.703428 0.0858131 0.948265C-0.098225 1.16681 0.0710243 1.61705 0.0710243 1.61705C0.0710243 1.61705 3.01235 8.49711 6.34147 11.9659C9.39617 15.1455 12.8633 14.9368 12.8633 14.9368H14.4342C14.4342 14.9368 14.9091 14.8842 15.1506 14.623C15.3741 14.383 15.3659 13.9328 15.3659 13.9328C15.3659 13.9328 15.3347 11.8246 16.314 11.514C17.2786 11.2084 18.5176 13.5516 19.8305 14.4537C20.823 15.1356 21.5772 14.9861 21.5772 14.9861L25.0887 14.9368C25.0887 14.9368 26.9258 14.8234 26.0549 13.3791Z" fill="#FDFDFD"/>
</svg>
