<svg width="20" height="22" viewBox="0 0 20 22" fill="none" xmlns="http://www.w3.org/2000/svg">
<circle cx="10.5" cy="9.5" r="8.5" fill="white"/>
<path d="M19.4204 4.83666C19.0484 3.50855 18.3118 2.45945 17.2329 1.71727C15.8713 0.777914 14.3051 0.446815 12.9528 0.244064C11.0816 -0.0349521 9.38702 -0.0740142 7.77059 0.123157C6.25646 0.309168 5.11622 0.604924 4.07642 1.08297C2.03774 2.02046 0.813795 3.53645 0.439914 5.58814C0.257624 6.58516 0.134857 7.48545 0.0641734 8.34482C-0.0995158 10.3314 0.0492926 12.0892 0.518039 13.7187C0.975625 15.3072 1.77361 16.4419 2.9585 17.1878C3.25983 17.3775 3.64673 17.5151 4.02062 17.6472C4.23267 17.7216 4.43914 17.7942 4.60841 17.8741C4.76466 17.9467 4.76466 17.9597 4.7628 18.0899C4.74978 19.219 4.7628 21.4325 4.7628 21.4325L4.76652 21.905H5.61473L5.75237 21.7711C5.84352 21.6855 7.94544 19.6543 8.69506 18.8358L8.79737 18.7223C8.92571 18.5735 8.92571 18.5735 9.05778 18.5717C10.0697 18.5512 11.1039 18.5122 12.1307 18.4564C13.3751 18.3894 14.8167 18.2685 16.1745 17.703C17.4171 17.184 18.3248 16.36 18.8698 15.2551C19.439 14.1018 19.7757 12.8537 19.9022 11.4382C20.1254 8.94935 19.9673 6.78977 19.4204 4.83666ZM14.945 14.5148C14.6325 15.0226 14.1675 15.376 13.6188 15.6048C13.217 15.7722 12.8078 15.7369 12.4115 15.5695C9.09498 14.1651 6.4927 11.9534 4.77396 8.77264C4.41868 8.11789 4.17314 7.40361 3.89041 6.71165C3.83275 6.57028 3.83647 6.40287 3.81042 6.24662C3.83461 5.1287 4.69211 4.49812 5.55892 4.30839C5.89002 4.23399 6.18392 4.35118 6.42945 4.58741C7.11025 5.23473 7.64782 5.98807 8.05332 6.83255C8.23003 7.20272 8.15005 7.53009 7.84871 7.80539C7.78547 7.86305 7.72037 7.91514 7.65154 7.96722C6.9633 8.48433 6.86286 8.87681 7.2293 9.65619C7.85429 10.9824 8.89223 11.8734 10.2334 12.4259C10.5868 12.571 10.9197 12.4984 11.1895 12.212C11.2267 12.1748 11.2676 12.1376 11.2936 12.0929C11.8219 11.2112 12.5901 11.2987 13.2988 11.8009C13.7638 12.132 14.2159 12.4817 14.6753 12.8184C15.3766 13.3336 15.371 13.8172 14.945 14.5148ZM10.5459 5.71463C10.3896 5.71463 10.2334 5.72765 10.079 5.75369C9.81856 5.79648 9.57489 5.62163 9.53025 5.36121C9.48746 5.10266 9.66231 4.85712 9.92273 4.81434C10.1273 4.779 10.3375 4.76226 10.5459 4.76226C12.6087 4.76226 14.2865 6.44007 14.2865 8.50293C14.2865 8.71312 14.2698 8.92331 14.2345 9.12606C14.1954 9.35858 13.9945 9.52413 13.7657 9.52413C13.7397 9.52413 13.7136 9.52227 13.6857 9.51669C13.4272 9.4739 13.2523 9.22837 13.2951 8.96981C13.3211 8.81729 13.3342 8.66104 13.3342 8.50293C13.3342 6.96648 12.0823 5.71463 10.5459 5.71463ZM12.858 8.57175C12.858 8.83403 12.6441 9.04794 12.3818 9.04794C12.1195 9.04794 11.9056 8.83403 11.9056 8.57175C11.9056 7.78493 11.2639 7.14319 10.477 7.14319C10.2148 7.14319 10.0009 6.92928 10.0009 6.66701C10.0009 6.40473 10.2148 6.19082 10.477 6.19082C11.7903 6.19082 12.858 7.25852 12.858 8.57175ZM15.5774 9.63015C15.5272 9.8515 15.3301 10.0003 15.1124 10.0003C15.0771 10.0003 15.0417 9.99659 15.0064 9.98915C14.7497 9.92963 14.5897 9.67479 14.6474 9.4181C14.7162 9.1149 14.7516 8.80055 14.7516 8.48433C14.7516 6.17036 12.8673 4.28607 10.5533 4.28607C10.2371 4.28607 9.92273 4.32141 9.61953 4.39024C9.36284 4.44976 9.108 4.28793 9.05034 4.03124C8.99082 3.77454 9.15265 3.51971 9.40934 3.46204C9.78136 3.37648 10.1664 3.3337 10.5533 3.3337C13.3937 3.3337 15.7039 5.64395 15.7039 8.48433C15.7039 8.87123 15.6612 9.25627 15.5774 9.63015Z" fill="#834995"/>
</svg>
