<svg width="50" height="39" viewBox="0 0 50 39" fill="none" xmlns="http://www.w3.org/2000/svg">
<path d="M0 2C0 0.89543 0.895431 0 2 0H48C49.1046 0 50 0.895431 50 2V5C50 6.10457 49.1046 7 48 7H2C0.895432 7 0 6.10457 0 5V2Z" fill="#242424"/>
<path d="M5 7H8V36H5V7Z" fill="#242424"/>
<path d="M42 7H45V36H42V7Z" fill="#242424"/>
<path d="M0 37.5C0 36.6716 0.671573 36 1.5 36H48.5C49.3284 36 50 36.6716 50 37.5C50 38.3284 49.3284 39 48.5 39H1.5C0.671571 39 0 38.3284 0 37.5Z" fill="#242424"/>
<path d="M11 12C11 11.4477 11.4477 11 12 11H38C38.5523 11 39 11.4477 39 12C39 12.5523 38.5523 13 38 13H12C11.4477 13 11 12.5523 11 12Z" fill="#242424"/>
<path d="M11 18C11 17.4477 11.4477 17 12 17H38C38.5523 17 39 17.4477 39 18C39 18.5523 38.5523 19 38 19H12C11.4477 19 11 18.5523 11 18Z" fill="#242424"/>
<path d="M11 24C11 23.4477 11.4477 23 12 23H38C38.5523 23 39 23.4477 39 24C39 24.5523 38.5523 25 38 25H12C11.4477 25 11 24.5523 11 24Z" fill="#242424"/>
<path d="M11 30C11 29.4477 11.4477 29 12 29H38C38.5523 29 39 29.4477 39 30C39 30.5523 38.5523 31 38 31H12C11.4477 31 11 30.5523 11 30Z" fill="#242424"/>
</svg>
