<svg width="20" height="20" viewBox="0 0 20 20" fill="none" xmlns="http://www.w3.org/2000/svg">
<g clip-path="url(#clip0)">
<path d="M19.2954 11.5775C19.8921 6.55501 19.0087 3.38417 17.4154 1.95L17.4162 1.94917C14.8446 -0.499999 6.15958 -0.862499 3.08291 2.05917C1.70124 3.48834 1.21458 5.58584 1.16124 8.18251C1.10791 10.78 1.04458 15.6458 5.57874 16.9658H5.58291L5.57874 18.9817C5.57874 18.9817 5.54791 19.7983 6.06958 19.9625C6.66624 20.1558 6.93624 19.7767 8.79208 17.56C11.8954 17.8292 14.2787 17.2125 14.5496 17.1225C15.1762 16.9125 18.7221 16.4433 19.2954 11.5775ZM9.09791 16.1417C9.09791 16.1417 7.13374 18.5908 6.52291 19.2267C6.32291 19.4333 6.10374 19.4142 6.10708 19.0042C6.10708 18.735 6.12208 15.6575 6.12208 15.6575C2.27791 14.5558 2.50458 10.4125 2.54624 8.24501C2.58791 6.07667 2.98458 4.30084 4.15458 3.105C6.85374 0.574169 14.4679 1.14 16.4079 2.96334C18.7796 5.06584 17.9354 11.0058 17.9404 11.2083C17.4529 15.27 14.5796 15.5275 14.0512 15.7033C13.8254 15.7783 11.7296 16.3175 9.09791 16.1417Z" fill="#FDFDFD"/>
<path d="M10.185 3.58083C9.86413 3.58083 9.86413 4.08083 10.185 4.085C12.6741 4.10417 14.7241 5.83917 14.7466 9.02167C14.7466 9.3575 15.2383 9.35333 15.2341 9.0175H15.2333C15.2066 5.58833 12.9683 3.6 10.185 3.58083Z" fill="#FDFDFD"/>
<path d="M13.4595 8.49417C13.452 8.82584 13.9428 8.84167 13.947 8.50584C13.9878 6.615 12.8219 5.0575 10.6311 4.89333C10.3103 4.87 10.2769 5.37417 10.5969 5.3975C12.4969 5.54167 13.4978 6.83834 13.4595 8.49417Z" fill="#FDFDFD"/>
<path d="M12.9345 10.645C12.5228 10.4067 12.1037 10.555 11.9303 10.7892L11.5678 11.2583C11.3837 11.4967 11.0395 11.465 11.0395 11.465C8.52784 10.8008 7.85617 8.1725 7.85617 8.1725C7.85617 8.1725 7.82534 7.81666 8.05534 7.62583L8.50867 7.25083C8.73534 7.07083 8.87867 6.6375 8.64784 6.21166C8.03117 5.0975 7.617 4.71333 7.40617 4.41833C7.18451 4.14083 6.85117 4.07833 6.50451 4.26583H6.49701C5.77617 4.6875 4.98701 5.47666 5.23951 6.28916C5.67034 7.14583 6.46201 9.87666 8.98534 11.94C10.1712 12.9158 12.0478 13.9158 12.8445 14.1467L12.852 14.1583C13.637 14.42 14.4003 13.6 14.8078 12.8575V12.8517C14.9887 12.4925 14.9287 12.1525 14.6645 11.93C14.1962 11.4733 13.4895 10.9692 12.9345 10.645Z" fill="#FDFDFD"/>
<path d="M10.9741 6.75334C11.775 6.8 12.1633 7.21834 12.205 8.0775C12.22 8.41334 12.7075 8.39001 12.6925 8.05417C12.6391 6.9325 12.0541 6.3075 11.0008 6.24917C10.68 6.23 10.65 6.73417 10.9741 6.75334Z" fill="#FDFDFD"/>
</g>
<defs>
<clipPath id="clip0">
<rect width="20" height="20" fill="white"/>
</clipPath>
</defs>
</svg>
