<svg width="20" height="20" viewBox="0 0 20 20" fill="none" xmlns="http://www.w3.org/2000/svg">
<g clip-path="url(#clip0)">
<path d="M14.5893 11.9225L14.5818 11.985C12.7493 11.0717 12.5576 10.95 12.3209 11.305C12.1568 11.5508 11.6784 12.1083 11.5343 12.2733C11.3884 12.4358 11.2434 12.4483 10.9959 12.3358C10.7459 12.2108 9.94345 11.9483 8.99345 11.0983C8.25345 10.4358 7.75678 9.62333 7.61011 9.37333C7.36595 8.95167 7.87678 8.89167 8.34178 8.01167C8.42511 7.83667 8.38261 7.69917 8.32095 7.575C8.25845 7.45 7.76095 6.225 7.55261 5.73667C7.35261 5.25 7.14678 5.31167 6.99261 5.31167C6.51261 5.27 6.16178 5.27667 5.85261 5.59833C4.50761 7.07667 4.84678 8.60167 5.99761 10.2233C8.25928 13.1833 9.46428 13.7283 11.6676 14.485C12.2626 14.6742 12.8051 14.6475 13.2343 14.5858C13.7126 14.51 14.7068 13.985 14.9143 13.3975C15.1268 12.81 15.1268 12.3225 15.0643 12.21C15.0026 12.0975 14.8393 12.035 14.5893 11.9225Z" fill="#FDFDFD"/>
<path d="M17.1 2.87407C10.6925 -3.32009 0.0883333 1.17241 0.0841667 9.91073C0.0841667 11.6574 0.541667 13.3607 1.41333 14.8649L0 19.9999L5.27917 18.6232C11.8667 22.1816 19.9967 17.4566 20 9.91573C20 7.26907 18.9667 4.77824 17.0875 2.90657L17.1 2.87407ZM18.335 9.88823C18.33 16.2491 11.3475 20.2216 5.825 16.9749L5.525 16.7966L2.4 17.6091L3.2375 14.5716L3.03833 14.2591C-0.398333 8.78824 3.55 1.63824 10.06 1.63824C12.2717 1.63824 14.3475 2.50074 15.9108 4.06324C17.4733 5.6124 18.335 7.68824 18.335 9.88823Z" fill="#FDFDFD"/>
</g>
<defs>
<clipPath id="clip0">
<rect width="20" height="20" fill="white"/>
</clipPath>
</defs>
</svg>
