<svg width="35" height="33" viewBox="0 0 35 33" fill="none" xmlns="http://www.w3.org/2000/svg">
<path fill-rule="evenodd" clip-rule="evenodd" d="M18.5046 21.8955V17.1438C18.5046 15.6017 19.6843 14.3479 21.1379 14.3479H30.8082V11.3873C30.8082 9.98317 29.9764 8.80964 28.8379 8.42669V8.42875L25.4387 8.39993L25.3976 8.28052H10.1396L9.84934 8.37934L4.46757 8.37522L4.45728 8.33199C3.14787 8.57905 2.09375 9.76493 2.09375 11.2905V27.6643C2.09375 29.3773 3.42787 30.8658 4.95757 30.8658H28.0452C29.5749 30.8658 30.8102 29.474 30.8102 27.7611V24.7696H21.1399C19.6864 24.7696 18.5046 23.4376 18.5046 21.8955Z" fill="url(#paint0_linear)"/>
<path fill-rule="evenodd" clip-rule="evenodd" d="M32.9332 16.5962H22.6247C21.5356 16.5962 20.6523 17.5597 20.6523 18.7477V20.4277C20.6523 21.6135 21.5356 22.5771 22.6247 22.5771H32.9332C34.0223 22.5771 34.9076 21.6135 34.9076 20.4277V18.7477C34.9076 17.5577 34.0223 16.5962 32.9332 16.5962ZM26.8288 20.6212H22.5835V18.5294H26.8288V20.6212Z" fill="url(#paint1_linear)"/>
<path fill-rule="evenodd" clip-rule="evenodd" d="M10.142 8.28057L23.794 3.6091L25.3999 8.28057H28.0455C28.3235 8.28057 28.587 8.34027 28.8402 8.42469L25.9805 0.10498L4.21875 7.3541L4.45963 8.3341C4.62228 8.30322 4.78904 8.28263 4.95787 8.28263H10.142V8.28057Z" fill="url(#paint2_linear)"/>
<defs>
<linearGradient id="paint0_linear" x1="16.452" y1="8.28052" x2="16.452" y2="30.8658" gradientUnits="userSpaceOnUse">
<stop stop-color="#FFDD6C"/>
<stop offset="1" stop-color="#FFCC00"/>
</linearGradient>
<linearGradient id="paint1_linear" x1="27.78" y1="16.5962" x2="27.78" y2="22.5771" gradientUnits="userSpaceOnUse">
<stop stop-color="#FFDD6C"/>
<stop offset="1" stop-color="#FFCC00"/>
</linearGradient>
<linearGradient id="paint2_linear" x1="16.5295" y1="0.10498" x2="16.5295" y2="8.42469" gradientUnits="userSpaceOnUse">
<stop stop-color="#FFDD6C"/>
<stop offset="1" stop-color="#FFCC00"/>
</linearGradient>
</defs>
</svg>
