<svg width="35" height="35" viewBox="0 0 35 35" fill="none" xmlns="http://www.w3.org/2000/svg">
<path d="M30.5776 5.87225L23.8694 12.5804C24.1868 13.1717 24.4748 13.8055 24.7182 14.4825L26.1519 13.795L26.59 14.7342C26.6256 14.8104 27.4617 16.6271 27.4617 18.7572C27.4617 24.2522 22.9928 28.7227 17.4998 28.7227C14.8016 28.7227 12.351 27.6435 10.5552 25.8946L5.87207 30.5778C9.07881 33.4363 13.1689 35 17.4998 35C22.1742 35 26.5689 33.1796 29.8742 29.8743C33.1794 26.569 34.9998 22.1744 34.9998 17.5C34.9998 13.1691 33.4361 9.07899 30.5776 5.87225Z" fill="url(#paint0_linear)"/>
<path d="M9.23501 24.3149C8.16402 22.7261 7.53813 20.8134 7.53813 18.7572C7.53813 16.6271 8.37416 14.8105 8.40978 14.7342L8.84789 13.7951L10.2816 14.4825C12.1795 9.20295 16.784 6.53037 16.9928 6.41156L17.5 6.12274L18.0073 6.41156C18.1601 6.49858 20.67 7.95512 22.7482 10.8017L29.1277 4.42224C25.921 1.56365 21.8309 0 17.5 0C12.8256 0 8.43097 1.82034 5.12565 5.12565C1.82034 8.43097 0 12.8256 0 17.5C0 21.8309 1.56365 25.921 4.42217 29.1277L9.23501 24.3149Z" fill="url(#paint1_linear)"/>
<path d="M12.8523 25.1579C12.7452 24.7597 12.6873 24.3416 12.6873 23.91C12.6873 20.2473 16.7579 17.4915 16.9311 17.376L17.4999 16.9968L18.0687 17.376C18.242 17.4915 22.3125 20.2473 22.3125 23.91C22.3125 24.3416 22.2546 24.7597 22.1475 25.1579C24.1238 23.7175 25.411 21.3851 25.411 18.7572C25.411 17.9394 25.2465 17.1621 25.0794 16.5836L23.412 17.383L23.0986 16.1787C22.0107 11.9992 18.7619 9.39994 17.4998 8.52405C16.2392 9.39884 12.9893 11.9983 11.9012 16.1787L11.5878 17.383L9.9198 16.5833C9.75293 17.1607 9.58887 17.9369 9.58887 18.7572C9.5888 21.3851 10.8759 23.7175 12.8523 25.1579Z" fill="url(#paint2_linear)"/>
<path d="M20.262 23.91C20.262 22.1287 18.5943 20.3942 17.5016 19.5073C16.4094 20.3974 14.7383 22.1378 14.7383 23.91C14.7383 25.4329 15.9772 26.6719 17.5001 26.6719C19.023 26.6719 20.262 25.4329 20.262 23.91Z" fill="url(#paint3_linear)"/>
<defs>
<linearGradient id="paint0_linear" x1="20.4359" y1="5.87225" x2="20.4359" y2="35" gradientUnits="userSpaceOnUse">
<stop stop-color="#FFDD6C"/>
<stop offset="1" stop-color="#FFCC00"/>
</linearGradient>
<linearGradient id="paint1_linear" x1="14.5639" y1="0" x2="14.5639" y2="29.1277" gradientUnits="userSpaceOnUse">
<stop stop-color="#FFDD6C"/>
<stop offset="1" stop-color="#FFCC00"/>
</linearGradient>
<linearGradient id="paint2_linear" x1="17.4999" y1="8.52405" x2="17.4999" y2="25.1579" gradientUnits="userSpaceOnUse">
<stop stop-color="#FFDD6C"/>
<stop offset="1" stop-color="#FFCC00"/>
</linearGradient>
<linearGradient id="paint3_linear" x1="17.5001" y1="19.5073" x2="17.5001" y2="26.6719" gradientUnits="userSpaceOnUse">
<stop stop-color="#FFDD6C"/>
<stop offset="1" stop-color="#FFCC00"/>
</linearGradient>
</defs>
</svg>
