<svg width="35" height="35" viewBox="0 0 35 35" fill="none" xmlns="http://www.w3.org/2000/svg">
<g clip-path="url(#clip0)">
<path d="M33.7958 16.5561C33.2016 15.7101 32.4305 15.0228 31.5357 14.5352C31.6079 14.1129 31.6444 13.6851 31.6444 13.2558C31.6444 9.07354 28.2418 5.67095 24.0594 5.67095C23.2596 5.67095 22.4803 5.79311 21.7323 6.03504C20.9086 4.66279 19.7774 3.49542 18.4201 2.62493C16.7479 1.55244 14.8095 0.985535 12.8145 0.985535C7.08203 0.985535 2.41835 5.64922 2.41835 11.3817C2.41835 12.5653 2.61331 13.7166 2.99906 14.816C1.15117 16.0335 0 18.1224 0 20.3718C0 24.0374 2.98225 27.0196 6.64781 27.0196H12.8288V26.6536C10.8196 25.1726 9.63635 22.8492 9.63635 20.3305C9.63628 17.3597 11.2823 14.6746 13.932 13.3232L15.1071 12.7239L16.4581 18.6983H18.5419L19.8929 12.7232L21.0679 13.3224C23.7177 14.6737 25.3637 17.3591 25.3637 20.3305C25.3637 22.85 24.1804 25.174 22.1712 26.6552V27.0195H28.3522C32.0178 27.0195 35 24.0373 35 20.3716C35 18.997 34.5836 17.6776 33.7958 16.5561Z" fill="url(#paint0_linear)"/>
<path d="M20.1209 25.5494L20.5988 25.2476C22.2985 24.1742 23.3133 22.3359 23.3133 20.3304C23.3134 18.5984 22.5564 16.9976 21.2757 15.9081L20.1811 20.749H14.8197L13.7252 15.9088C12.4444 16.9983 11.6874 18.5988 11.6875 20.3304C11.6875 22.3349 12.7023 24.1725 14.4021 25.2458L14.88 25.5476V34.0144H20.1208V25.5494H20.1209Z" fill="url(#paint1_linear)"/>
</g>
<defs>
<linearGradient id="paint0_linear" x1="17.5" y1="0.985535" x2="17.5" y2="27.0196" gradientUnits="userSpaceOnUse">
<stop stop-color="#FFDD6C"/>
<stop offset="1" stop-color="#FFCC00"/>
</linearGradient>
<linearGradient id="paint1_linear" x1="17.5004" y1="15.9081" x2="17.5004" y2="34.0144" gradientUnits="userSpaceOnUse">
<stop stop-color="#FFDD6C"/>
<stop offset="1" stop-color="#FFCC00"/>
</linearGradient>
<clipPath id="clip0">
<rect width="35" height="35" fill="white"/>
</clipPath>
</defs>
</svg>
