<svg width="35" height="35" viewBox="0 0 35 35" fill="none" xmlns="http://www.w3.org/2000/svg">
<g clip-path="url(#clip0)">
<path d="M17.4998 10.832C13.8226 10.832 10.8311 13.8236 10.8311 17.5005C10.8311 21.1778 13.8226 24.1693 17.4998 24.1693C21.1768 24.1693 24.1683 21.1778 24.1683 17.5005C24.1683 13.8236 21.1768 10.832 17.4998 10.832ZM21.4591 16.2447L16.6817 21.0221C16.4811 21.2227 16.2181 21.3231 15.9553 21.3231C15.6926 21.3231 15.4298 21.2229 15.2293 21.0221L13.4036 19.1964C13.0025 18.7956 13.0025 18.1454 13.4036 17.7443C13.8044 17.3433 14.4546 17.3433 14.8557 17.7443L15.9553 18.844L20.007 14.7926C20.4078 14.3915 21.058 14.3915 21.4591 14.7926C21.8601 15.1934 21.8601 15.8436 21.4591 16.2447Z" fill="url(#paint0_linear)"/>
<path d="M32.3673 9.49639L32.3662 9.46915C32.351 9.13296 32.3408 8.77728 32.3347 8.38154C32.3061 6.45173 30.772 4.85544 28.842 4.74756C24.8179 4.52299 21.7048 3.21081 19.045 0.618237L19.0223 0.596607C18.1547 -0.198869 16.846 -0.198869 15.9782 0.596607L15.9555 0.618237C13.2956 3.21081 10.1826 4.52299 6.15846 4.74783C4.22865 4.85544 2.69431 6.45173 2.66574 8.38181C2.65986 8.77488 2.64945 9.13056 2.63423 9.46915L2.63262 9.53244C2.55439 13.6359 2.45719 18.7428 4.16563 23.3781C5.10504 25.9272 6.52776 28.143 8.39402 29.9644C10.5196 32.0386 13.3036 33.6854 16.6687 34.8587C16.7782 34.8969 16.8919 34.9279 17.0078 34.9511C17.1712 34.9837 17.3357 35 17.5002 35C17.6647 35 17.8295 34.9837 17.9926 34.9511C18.1085 34.9279 18.2231 34.8966 18.3331 34.8582C21.6942 33.6827 24.4753 32.0352 26.5989 29.9612C28.4644 28.1392 29.8871 25.9229 30.8273 23.3733C32.5422 18.7241 32.4452 13.6076 32.3673 9.49639ZM17.4997 26.223C12.69 26.223 8.77721 22.3103 8.77721 17.5006C8.77721 12.6908 12.69 8.77808 17.4997 8.77808C22.3091 8.77808 26.2222 12.6908 26.2222 17.5006C26.2222 22.3103 22.3091 26.223 17.4997 26.223Z" fill="url(#paint1_linear)"/>
</g>
<defs>
<linearGradient id="paint0_linear" x1="17.4997" y1="10.832" x2="17.4997" y2="24.1693" gradientUnits="userSpaceOnUse">
<stop stop-color="#FFDD6C"/>
<stop offset="1" stop-color="#FFCC00"/>
</linearGradient>
<linearGradient id="paint1_linear" x1="17.4998" y1="0" x2="17.4998" y2="35" gradientUnits="userSpaceOnUse">
<stop stop-color="#FFDD6C"/>
<stop offset="1" stop-color="#FFCC00"/>
</linearGradient>
<clipPath id="clip0">
<rect width="35" height="35" fill="white"/>
</clipPath>
</defs>
</svg>
