<svg width="35" height="35" viewBox="0 0 35 35" fill="none" xmlns="http://www.w3.org/2000/svg">
<path d="M17.5001 0C11.1056 0 5.90332 5.20234 5.90332 11.5968C5.90332 14.6588 7.0858 17.5469 9.23289 19.7294L9.40236 19.9014C10.2994 20.8452 10.9573 21.9733 11.3354 23.2065H16.4604V14.1186L13.4381 11.0961L14.9084 9.62587L17.5001 12.2176L20.0919 9.62587L21.5622 11.0961L18.5398 14.1186V23.2065H23.6648C24.0417 21.9772 24.6966 20.8522 25.5896 19.9101L25.7673 19.7294C27.9144 17.547 29.0969 14.6588 29.0969 11.5969C29.0969 5.20234 23.8946 0 17.5001 0ZM23.552 11.5968C23.552 8.25964 20.8371 5.54476 17.5001 5.54476V3.46547C21.9837 3.46547 25.6313 7.11312 25.6313 11.5968H23.552Z" fill="url(#paint0_linear)"/>
<path d="M10.9766 25.2858V29.5227C10.9766 30.3692 11.5895 31.0746 12.3948 31.22V31.9965C12.3948 33.6553 13.7395 35 15.3982 35H19.601C21.2598 35 22.6045 33.6553 22.6045 31.9965V31.22C23.4097 31.0747 24.0227 30.3692 24.0227 29.5227V25.2858H10.9766Z" fill="url(#paint1_linear)"/>
<defs>
<linearGradient id="paint0_linear" x1="17.5001" y1="0" x2="17.5001" y2="23.2065" gradientUnits="userSpaceOnUse">
<stop stop-color="#FFDD6C"/>
<stop offset="1" stop-color="#FFCC00"/>
</linearGradient>
<linearGradient id="paint1_linear" x1="17.4996" y1="25.2858" x2="17.4996" y2="35" gradientUnits="userSpaceOnUse">
<stop stop-color="#FFDD6C"/>
<stop offset="1" stop-color="#FFCC00"/>
</linearGradient>
</defs>
</svg>
