<svg width="24" height="24" viewBox="0 0 24 24" fill="none" xmlns="http://www.w3.org/2000/svg">
<path d="M20.9461 8.30545C20.936 7.54807 20.7942 6.79822 20.5271 6.08945C20.2954 5.4916 19.9416 4.94864 19.4883 4.49528C19.0349 4.04191 18.4919 3.6881 17.8941 3.45645C17.1944 3.1938 16.4553 3.05179 15.7081 3.03645C14.7461 2.99345 14.4411 2.98145 11.9991 2.98145C9.55709 2.98145 9.24409 2.98145 8.28909 3.03645C7.54225 3.0519 6.80344 3.19391 6.10409 3.45645C5.50615 3.68793 4.96311 4.04169 4.50973 4.49508C4.05634 4.94847 3.70258 5.4915 3.47109 6.08945C3.20792 6.78858 3.06622 7.52756 3.05209 8.27445C3.00909 9.23745 2.99609 9.54245 2.99609 11.9844C2.99609 14.4264 2.99609 14.7384 3.05209 15.6944C3.06709 16.4424 3.20809 17.1804 3.47109 17.8814C3.70297 18.4792 4.05699 19.022 4.51053 19.4752C4.96407 19.9284 5.50716 20.282 6.10509 20.5134C6.80253 20.7866 7.54147 20.9388 8.29009 20.9634C9.25309 21.0064 9.55809 21.0194 12.0001 21.0194C14.4421 21.0194 14.7551 21.0194 15.7101 20.9634C16.4572 20.9487 17.1965 20.807 17.8961 20.5444C18.4938 20.3125 19.0366 19.9586 19.4899 19.5053C19.9433 19.052 20.2972 18.5091 20.5291 17.9114C20.7921 17.2114 20.9331 16.4734 20.9481 15.7244C20.9911 14.7624 21.0041 14.4574 21.0041 12.0144C21.0021 9.57245 21.0021 9.26245 20.9461 8.30545ZM11.9931 16.6024C9.43909 16.6024 7.37009 14.5334 7.37009 11.9794C7.37009 9.42545 9.43909 7.35645 11.9931 7.35645C13.2192 7.35645 14.3951 7.84351 15.262 8.71049C16.129 9.57747 16.6161 10.7533 16.6161 11.9794C16.6161 13.2055 16.129 14.3814 15.262 15.2484C14.3951 16.1154 13.2192 16.6024 11.9931 16.6024ZM16.8001 8.26344C16.2031 8.26344 15.7221 7.78145 15.7221 7.18545C15.7221 7.04395 15.75 6.90383 15.8041 6.7731C15.8583 6.64238 15.9376 6.52359 16.0377 6.42354C16.1377 6.32348 16.2565 6.24411 16.3873 6.18997C16.518 6.13582 16.6581 6.10795 16.7996 6.10795C16.9411 6.10795 17.0812 6.13582 17.2119 6.18997C17.3427 6.24411 17.4614 6.32348 17.5615 6.42354C17.6616 6.52359 17.7409 6.64238 17.7951 6.7731C17.8492 6.90383 17.8771 7.04395 17.8771 7.18545C17.8771 7.78145 17.3951 8.26344 16.8001 8.26344Z" fill="#FDFDFD"/>
<path d="M11.9932 14.9816C13.6517 14.9816 14.9962 13.6371 14.9962 11.9786C14.9962 10.3201 13.6517 8.97559 11.9932 8.97559C10.3347 8.97559 8.99023 10.3201 8.99023 11.9786C8.99023 13.6371 10.3347 14.9816 11.9932 14.9816Z" fill="#FDFDFD"/>
</svg>
