<svg width="22" height="31" viewBox="0 0 22 31" fill="none" xmlns="http://www.w3.org/2000/svg">
<path fill-rule="evenodd" clip-rule="evenodd" d="M1.57143 27.9H20.4286C21.2929 27.9 22 28.5975 22 29.45C22 30.3025 21.2929 31 20.4286 31H1.57143C0.707143 31 0 30.3025 0 29.45C0 28.5975 0.707143 27.9 1.57143 27.9ZM11 7.75C9.27143 7.75 7.85714 9.145 7.85714 10.85C7.85714 12.555 9.27143 13.95 11 13.95C11.8335 13.95 12.6329 13.6234 13.2223 13.042C13.8117 12.4607 14.1429 11.6722 14.1429 10.85C14.1429 10.0278 13.8117 9.23933 13.2223 8.65797C12.6329 8.07661 11.8335 7.75 11 7.75ZM11 0C16.1386 0 22 3.813 22 11.0825C22 15.7015 18.6529 20.5685 11.9586 25.637C11.3929 26.071 10.6071 26.071 10.0414 25.637C3.34714 20.553 0 15.7015 0 11.0825C0 3.813 5.86143 0 11 0Z" fill="url(#paint0_linear)"/>
<defs>
<linearGradient id="paint0_linear" x1="11" y1="0" x2="11" y2="31" gradientUnits="userSpaceOnUse">
<stop stop-color="#FFDD6C"/>
<stop offset="1" stop-color="#FFCC00"/>
</linearGradient>
</defs>
</svg>
