<svg width="22" height="22" viewBox="0 0 22 22" fill="none" xmlns="http://www.w3.org/2000/svg">
<path d="M1.01172 20.9333L2.41852 15.8228C1.55105 14.3238 1.09472 12.6239 1.09534 10.8937C1.09534 5.45488 5.54209 1.0304 10.9971 1.0304C13.6484 1.0304 16.1325 2.05935 18.0016 3.92121C19.8708 5.78317 20.8989 8.26249 20.8989 10.8986C20.8989 16.3373 16.4522 20.7617 10.9971 20.7617H10.9922C9.33451 20.7617 7.70634 20.3453 6.26018 19.5613L1.01172 20.9334V20.9333Z" fill="url(#paint0_linear)"/>
<path d="M6.07702 19.8216L0.72547 21.2207L2.15846 16.0125L2.16401 15.9923L2.15354 15.9742C1.26268 14.4334 0.787853 12.683 0.792813 10.8938V10.8937C0.792813 5.28675 5.37431 0.727612 11.0038 0.727612C13.7352 0.727612 16.3 1.7856 18.2238 3.7067L18.2238 3.70675C20.1524 5.62791 21.2145 8.18264 21.2096 10.8984V10.8985C21.2096 16.5054 16.6281 21.0646 10.9987 21.0646H10.9939C9.28881 21.0639 7.61103 20.6381 6.11351 19.826L6.09614 19.8166L6.07702 19.8216ZM6.62956 18.2469L6.62985 18.2471C7.94615 19.0259 9.45512 19.4349 10.9937 19.4399H10.9939H10.9988C15.7237 19.4399 19.5733 15.6106 19.5733 10.8985C19.5733 8.61666 18.6825 6.47251 17.0647 4.85606C15.4467 3.2395 13.2893 2.35234 10.9988 2.35234C6.26887 2.35234 2.41938 6.18162 2.41938 10.8937C2.41938 12.5052 2.86953 14.0774 3.73053 15.4378C3.73056 15.4378 3.7306 15.4379 3.73063 15.4379L3.92056 15.7425L3.06553 18.8523L3.04254 18.9359L3.12643 18.9139L6.33773 18.0716L6.62956 18.2469Z" fill="white" stroke="#484848" stroke-width="0.1"/>
<path d="M8.43551 6.61619C8.24361 6.18989 8.04192 6.18005 7.85999 6.17517C7.71243 6.17029 7.5403 6.17029 7.36808 6.17029C7.19595 6.17029 6.92043 6.23398 6.68436 6.48873C6.4482 6.74357 5.78906 7.36094 5.78906 8.62025C5.78906 9.87451 6.70894 11.0896 6.83681 11.2611C6.96469 11.4327 8.61254 14.0932 11.2146 15.1173C13.379 15.9699 13.8217 15.7983 14.289 15.7542C14.7612 15.7102 15.8041 15.1369 16.0204 14.5391C16.2319 13.9413 16.2319 13.4317 16.168 13.324C16.1041 13.2161 15.9319 13.1525 15.6761 13.025C15.4203 12.8977 14.1611 12.2803 13.925 12.1921C13.6889 12.104 13.5167 12.0648 13.3495 12.3195C13.1773 12.5743 12.6855 13.1475 12.5378 13.3191C12.3903 13.4906 12.2378 13.5102 11.982 13.3828C11.7262 13.2554 10.8999 12.9858 9.92103 12.1137C9.15859 11.4375 8.6421 10.5997 8.49446 10.3449C8.34691 10.0901 8.47977 9.95284 8.60764 9.82554C8.72074 9.7128 8.86339 9.52662 8.99135 9.37964C9.11923 9.23266 9.16349 9.12488 9.2471 8.95333C9.33072 8.78187 9.29136 8.63489 9.22743 8.50751C9.16349 8.38005 8.66178 7.12083 8.43551 6.61619Z" fill="white"/>
<defs>
<linearGradient id="paint0_linear" x1="10.9549" y1="20.932" x2="10.9549" y2="1.0292" gradientUnits="userSpaceOnUse">
<stop stop-color="#20B038"/>
<stop offset="1" stop-color="#60D66A"/>
</linearGradient>
</defs>
</svg>
