<svg width="56" height="44" viewBox="0 0 56 44" fill="none" xmlns="http://www.w3.org/2000/svg">
<path d="M0 2.25641C0 1.01023 1.00288 0 2.24 0H53.76C54.9971 0 56 1.01023 56 2.25641V5.64103C56 6.88721 54.9971 7.89744 53.76 7.89744H2.24C1.00288 7.89744 0 6.88721 0 5.64103V2.25641Z" fill="url(#paint0_linear)"/>
<path d="M5.6 7.89744H8.96V40.6154H5.6V7.89744Z" fill="url(#paint1_linear)"/>
<path d="M47.04 7.89744H50.4V40.6154H47.04V7.89744Z" fill="url(#paint2_linear)"/>
<path d="M0 42.3077C0 41.3731 0.752162 40.6154 1.68 40.6154H54.32C55.2478 40.6154 56 41.3731 56 42.3077C56 43.2423 55.2478 44 54.32 44H1.68C0.75216 44 0 43.2423 0 42.3077Z" fill="url(#paint3_linear)"/>
<path d="M12.32 13.5385C12.32 12.9154 12.8214 12.4103 13.44 12.4103H42.56C43.1786 12.4103 43.68 12.9154 43.68 13.5385C43.68 14.1616 43.1786 14.6667 42.56 14.6667H13.44C12.8214 14.6667 12.32 14.1616 12.32 13.5385Z" fill="url(#paint4_linear)"/>
<path d="M12.32 20.3077C12.32 19.6846 12.8214 19.1795 13.44 19.1795H42.56C43.1786 19.1795 43.68 19.6846 43.68 20.3077C43.68 20.9308 43.1786 21.4359 42.56 21.4359H13.44C12.8214 21.4359 12.32 20.9308 12.32 20.3077Z" fill="url(#paint5_linear)"/>
<path d="M12.32 27.0769C12.32 26.4538 12.8214 25.9487 13.44 25.9487H42.56C43.1786 25.9487 43.68 26.4538 43.68 27.0769C43.68 27.7 43.1786 28.2051 42.56 28.2051H13.44C12.8214 28.2051 12.32 27.7 12.32 27.0769Z" fill="url(#paint6_linear)"/>
<path d="M12.32 33.8462C12.32 33.2231 12.8214 32.718 13.44 32.718H42.56C43.1786 32.718 43.68 33.2231 43.68 33.8462C43.68 34.4692 43.1786 34.9744 42.56 34.9744H13.44C12.8214 34.9744 12.32 34.4692 12.32 33.8462Z" fill="url(#paint7_linear)"/>
<defs>
<linearGradient id="paint0_linear" x1="28" y1="0" x2="28" y2="44" gradientUnits="userSpaceOnUse">
<stop stop-color="#FFDD6C"/>
<stop offset="1" stop-color="#FFCC00"/>
</linearGradient>
<linearGradient id="paint1_linear" x1="28" y1="0" x2="28" y2="44" gradientUnits="userSpaceOnUse">
<stop stop-color="#FFDD6C"/>
<stop offset="1" stop-color="#FFCC00"/>
</linearGradient>
<linearGradient id="paint2_linear" x1="28" y1="0" x2="28" y2="44" gradientUnits="userSpaceOnUse">
<stop stop-color="#FFDD6C"/>
<stop offset="1" stop-color="#FFCC00"/>
</linearGradient>
<linearGradient id="paint3_linear" x1="28" y1="0" x2="28" y2="44" gradientUnits="userSpaceOnUse">
<stop stop-color="#FFDD6C"/>
<stop offset="1" stop-color="#FFCC00"/>
</linearGradient>
<linearGradient id="paint4_linear" x1="28" y1="0" x2="28" y2="44" gradientUnits="userSpaceOnUse">
<stop stop-color="#FFDD6C"/>
<stop offset="1" stop-color="#FFCC00"/>
</linearGradient>
<linearGradient id="paint5_linear" x1="28" y1="0" x2="28" y2="44" gradientUnits="userSpaceOnUse">
<stop stop-color="#FFDD6C"/>
<stop offset="1" stop-color="#FFCC00"/>
</linearGradient>
<linearGradient id="paint6_linear" x1="28" y1="0" x2="28" y2="44" gradientUnits="userSpaceOnUse">
<stop stop-color="#FFDD6C"/>
<stop offset="1" stop-color="#FFCC00"/>
</linearGradient>
<linearGradient id="paint7_linear" x1="28" y1="0" x2="28" y2="44" gradientUnits="userSpaceOnUse">
<stop stop-color="#FFDD6C"/>
<stop offset="1" stop-color="#FFCC00"/>
</linearGradient>
</defs>
</svg>
