<svg width="35" height="35" fill="none" xmlns="http://www.w3.org/2000/svg"><path d="M17.5 0C11.106 0 5.903 5.202 5.903 11.597a11.53 11.53 0 003.33 8.132l.17.172a8.337 8.337 0 011.932 3.305h5.125V14.12l-3.022-3.023 1.47-1.47 2.592 2.592 2.592-2.592 1.47 1.47-3.022 3.023v9.087h5.125a8.336 8.336 0 011.925-3.296l.177-.18a11.53 11.53 0 003.33-8.133C29.097 5.202 23.895 0 17.5 0zm6.052 11.597A6.059 6.059 0 0017.5 5.545v-2.08c4.484 0 8.131 3.648 8.131 8.132h-2.079z" fill="url(#paint0_linear)"/><path d="M10.977 25.286v4.237c0 .846.612 1.552 1.418 1.697v.777A3.003 3.003 0 0015.398 35h4.203a3.003 3.003 0 003.004-3.003v-.777a1.728 1.728 0 001.418-1.697v-4.237H10.977z" fill="url(#paint1_linear)"/><defs><linearGradient id="paint0_linear" x1="17.5" y1="0" x2="17.5" y2="23.206" gradientUnits="userSpaceOnUse"><stop stop-color="#FFDD6C"/><stop offset="1" stop-color="#FC0"/></linearGradient><linearGradient id="paint1_linear" x1="17.5" y1="25.286" x2="17.5" y2="35" gradientUnits="userSpaceOnUse"><stop stop-color="#FFDD6C"/><stop offset="1" stop-color="#FC0"/></linearGradient></defs></svg>