<svg width="35" height="35" fill="none" xmlns="http://www.w3.org/2000/svg"><g clip-path="url(#clip0)"><path d="M33.796 16.556a6.641 6.641 0 00-2.26-2.02 7.59 7.59 0 00.108-1.28c0-4.182-3.402-7.585-7.585-7.585-.8 0-1.579.122-2.327.364a10.423 10.423 0 00-3.312-3.41 10.362 10.362 0 00-5.606-1.64C7.083.986 2.418 5.65 2.418 11.383c0 1.183.195 2.335.581 3.434A6.675 6.675 0 000 20.372a6.655 6.655 0 006.648 6.648h6.18v-.366a7.82 7.82 0 01-3.192-6.323 7.834 7.834 0 014.296-7.008l1.175-.6 1.351 5.975h2.084l1.35-5.975 1.176.6a7.834 7.834 0 014.296 7.008 7.822 7.822 0 01-3.193 6.324v.364h6.181A6.655 6.655 0 0035 20.373a6.604 6.604 0 00-1.204-3.816z" fill="url(#paint0_linear)"/><path d="M20.12 25.55l.479-.302a5.788 5.788 0 002.714-4.918 5.787 5.787 0 00-2.037-4.422L20.18 20.75h-5.36l-1.095-4.84a5.785 5.785 0 00-2.037 4.421 5.786 5.786 0 002.714 4.916l.478.302v8.466h5.24V25.55z" fill="url(#paint1_linear)"/></g><defs><linearGradient id="paint0_linear" x1="17.5" y1=".986" x2="17.5" y2="27.02" gradientUnits="userSpaceOnUse"><stop stop-color="#FFDD6C"/><stop offset="1" stop-color="#FC0"/></linearGradient><linearGradient id="paint1_linear" x1="17.5" y1="15.908" x2="17.5" y2="34.014" gradientUnits="userSpaceOnUse"><stop stop-color="#FFDD6C"/><stop offset="1" stop-color="#FC0"/></linearGradient><clipPath id="clip0"><path fill="#fff" d="M0 0h35v35H0z"/></clipPath></defs></svg>