<svg width="35" height="35" fill="none" xmlns="http://www.w3.org/2000/svg"><g clip-path="url(#clip0)"><path d="M16.475 11.434V9.36a8.218 8.218 0 00-7.114 7.114h2.073a6.166 6.166 0 015.04-5.041z" fill="url(#paint0_linear)"/><path d="M13.398 17.5a4.11 4.11 0 003.077 3.972V17.5h2.05v3.972a4.11 4.11 0 003.077-3.972 4.107 4.107 0 00-4.102-4.102 4.107 4.107 0 00-4.102 4.102z" fill="url(#paint1_linear)"/><path d="M17.5 23.652a6.16 6.16 0 01-6.066-5.127H9.361c.506 4.042 3.963 7.178 8.14 7.178 4.175 0 7.632-3.136 8.138-7.178h-2.073a6.16 6.16 0 01-6.066 5.127z" fill="url(#paint2_linear)"/><path d="M35 20.355v-5.71l-3.651-.895a14.239 14.239 0 00-1.41-3.387l1.904-3.173-4.033-4.032-3.173 1.903a14.24 14.24 0 00-3.387-1.41L20.355 0h-5.71l-.895 3.651a14.24 14.24 0 00-3.387 1.41L7.19 3.158 3.158 7.19l1.903 3.173a14.24 14.24 0 00-1.41 3.387L0 14.645v5.71l3.651.895a14.24 14.24 0 001.41 3.387L3.158 27.81l4.032 4.033 3.173-1.904c1.07.616 2.205 1.09 3.387 1.41L14.645 35h5.71l.895-3.651a14.239 14.239 0 003.387-1.41l3.173 1.904 4.033-4.033-1.904-3.173a14.239 14.239 0 001.41-3.387L35 20.355zm-17.5 7.399c-5.654 0-10.254-4.6-10.254-10.254S11.846 7.246 17.5 7.246s10.254 4.6 10.254 10.254-4.6 10.254-10.254 10.254z" fill="url(#paint3_linear)"/><path d="M18.525 9.361v2.073a6.166 6.166 0 015.041 5.04h2.073a8.218 8.218 0 00-7.114-7.113z" fill="url(#paint4_linear)"/></g><defs><linearGradient id="paint0_linear" x1="12.918" y1="9.361" x2="12.918" y2="16.475" gradientUnits="userSpaceOnUse"><stop stop-color="#FFDD6C"/><stop offset="1" stop-color="#FC0"/></linearGradient><linearGradient id="paint1_linear" x1="17.5" y1="13.398" x2="17.5" y2="21.472" gradientUnits="userSpaceOnUse"><stop stop-color="#FFDD6C"/><stop offset="1" stop-color="#FC0"/></linearGradient><linearGradient id="paint2_linear" x1="17.5" y1="18.525" x2="17.5" y2="25.703" gradientUnits="userSpaceOnUse"><stop stop-color="#FFDD6C"/><stop offset="1" stop-color="#FC0"/></linearGradient><linearGradient id="paint3_linear" x1="17.5" y1="0" x2="17.5" y2="35" gradientUnits="userSpaceOnUse"><stop stop-color="#FFDD6C"/><stop offset="1" stop-color="#FC0"/></linearGradient><linearGradient id="paint4_linear" x1="22.082" y1="9.361" x2="22.082" y2="16.475" gradientUnits="userSpaceOnUse"><stop stop-color="#FFDD6C"/><stop offset="1" stop-color="#FC0"/></linearGradient><clipPath id="clip0"><path fill="#fff" d="M0 0h35v35H0z"/></clipPath></defs></svg>