<svg width="35" height="33" fill="none" xmlns="http://www.w3.org/2000/svg"><path fill-rule="evenodd" clip-rule="evenodd" d="M18.505 21.895v-4.751c0-1.542 1.18-2.796 2.633-2.796h9.67v-2.96c0-1.405-.832-2.578-1.97-2.961v.002l-3.4-.03-.04-.118H10.14l-.29.098-5.382-.004-.01-.043c-1.31.247-2.364 1.433-2.364 2.958v16.374c0 1.713 1.334 3.202 2.864 3.202h23.087c1.53 0 2.765-1.392 2.765-3.105V24.77h-9.67c-1.454 0-2.635-1.332-2.635-2.875z" fill="url(#paint0_linear)"/><path fill-rule="evenodd" clip-rule="evenodd" d="M32.933 16.596H22.625c-1.09 0-1.973.964-1.973 2.152v1.68c0 1.185.884 2.15 1.973 2.15h10.308c1.09 0 1.975-.965 1.975-2.15v-1.68c0-1.19-.886-2.152-1.975-2.152zm-6.104 4.025h-4.245V18.53h4.245v2.092z" fill="url(#paint1_linear)"/><path fill-rule="evenodd" clip-rule="evenodd" d="M10.142 8.28l13.652-4.67L25.4 8.28h2.646c.277 0 .541.06.794.145L25.98.105 4.22 7.355l.24.98c.163-.032.33-.052.499-.052h5.184V8.28z" fill="url(#paint2_linear)"/><defs><linearGradient id="paint0_linear" x1="16.452" y1="8.281" x2="16.452" y2="30.866" gradientUnits="userSpaceOnUse"><stop stop-color="#FFDD6C"/><stop offset="1" stop-color="#FC0"/></linearGradient><linearGradient id="paint1_linear" x1="27.78" y1="16.596" x2="27.78" y2="22.577" gradientUnits="userSpaceOnUse"><stop stop-color="#FFDD6C"/><stop offset="1" stop-color="#FC0"/></linearGradient><linearGradient id="paint2_linear" x1="16.529" y1=".105" x2="16.529" y2="8.425" gradientUnits="userSpaceOnUse"><stop stop-color="#FFDD6C"/><stop offset="1" stop-color="#FC0"/></linearGradient></defs></svg>