<svg width="35" height="35" fill="none" xmlns="http://www.w3.org/2000/svg"><path d="M30.578 5.872l-6.709 6.708c.318.592.606 1.226.85 1.902l1.433-.687.438.94c.036.075.872 1.892.872 4.022 0 5.495-4.47 9.966-9.962 9.966a9.927 9.927 0 01-6.945-2.828l-4.683 4.683A17.372 17.372 0 0017.5 35c4.674 0 9.069-1.82 12.374-5.126A17.386 17.386 0 0035 17.5c0-4.33-1.564-8.421-4.422-11.628z" fill="url(#paint0_linear)"/><path d="M9.235 24.315a9.911 9.911 0 01-1.697-5.558c0-2.13.836-3.947.872-4.023l.438-.939 1.434.688c1.898-5.28 6.502-7.953 6.71-8.071l.508-.29.507.29c.153.087 2.663 1.543 4.741 4.39l6.38-6.38A17.371 17.371 0 0017.5 0C12.826 0 8.431 1.82 5.126 5.126A17.385 17.385 0 000 17.5c0 4.33 1.564 8.421 4.422 11.628l4.813-4.813z" fill="url(#paint1_linear)"/><path d="M12.852 25.158a4.798 4.798 0 01-.165-1.248c0-3.663 4.07-6.419 4.244-6.534l.569-.38.569.38c.173.115 4.244 2.871 4.244 6.534a4.8 4.8 0 01-.165 1.248 7.91 7.91 0 003.263-6.4c0-.819-.165-1.596-.332-2.174l-1.667.799-.313-1.204c-1.088-4.18-4.337-6.78-5.6-7.655-1.26.875-4.51 3.474-5.598 7.655l-.313 1.204-1.668-.8c-.167.578-.331 1.354-.331 2.174a7.91 7.91 0 003.263 6.4z" fill="url(#paint2_linear)"/><path d="M20.262 23.91c0-1.781-1.668-3.516-2.76-4.403-1.093.89-2.764 2.63-2.764 4.403a2.765 2.765 0 002.762 2.762 2.765 2.765 0 002.762-2.762z" fill="url(#paint3_linear)"/><defs><linearGradient id="paint0_linear" x1="20.436" y1="5.872" x2="20.436" y2="35" gradientUnits="userSpaceOnUse"><stop stop-color="#FFDD6C"/><stop offset="1" stop-color="#FC0"/></linearGradient><linearGradient id="paint1_linear" x1="14.564" y1="0" x2="14.564" y2="29.128" gradientUnits="userSpaceOnUse"><stop stop-color="#FFDD6C"/><stop offset="1" stop-color="#FC0"/></linearGradient><linearGradient id="paint2_linear" x1="17.5" y1="8.524" x2="17.5" y2="25.158" gradientUnits="userSpaceOnUse"><stop stop-color="#FFDD6C"/><stop offset="1" stop-color="#FC0"/></linearGradient><linearGradient id="paint3_linear" x1="17.5" y1="19.507" x2="17.5" y2="26.672" gradientUnits="userSpaceOnUse"><stop stop-color="#FFDD6C"/><stop offset="1" stop-color="#FC0"/></linearGradient></defs></svg>