<svg width="27" height="15" fill="none" xmlns="http://www.w3.org/2000/svg"><path d="M26.055 13.38c-.07-.12-.508-1.069-2.611-3.021-2.202-2.044-1.906-1.712.746-5.247 1.615-2.152 2.26-3.467 2.059-4.029-.192-.536-1.38-.394-1.38-.394l-3.95.023s-.293-.04-.512.09c-.212.128-.348.424-.348.424s-.626 1.666-1.46 3.083c-1.76 2.989-2.466 3.146-2.753 2.96-.67-.432-.502-1.738-.502-2.665 0-2.897.44-4.104-.856-4.417-.43-.103-.746-.172-1.845-.184-1.41-.014-2.604.005-3.28.336-.45.22-.797.711-.585.74.262.034.853.158 1.167.586.406.55.391 1.79.391 1.79s.233 3.409-.544 3.833c-.534.29-1.265-.303-2.834-3.016a25.23 25.23 0 01-1.412-2.924s-.117-.286-.325-.44C4.968.724 4.613.665 4.613.665L.856.687S.293.703.086.948c-.184.219-.015.67-.015.67 0-.001 2.941 6.88 6.27 10.348 3.055 3.18 6.522 2.97 6.522 2.97h1.571s.475-.052.717-.313c.223-.24.215-.69.215-.69s-.031-2.108.948-2.419c.965-.306 2.204 2.038 3.517 2.94.992.682 1.746.532 1.746.532l3.512-.05s1.837-.113.966-1.557z" fill="#FDFDFD"/></svg>