<svg width="24" height="24" fill="none" xmlns="http://www.w3.org/2000/svg"><path d="M20.946 8.305a6.531 6.531 0 00-.419-2.216 4.612 4.612 0 00-2.633-2.633 6.606 6.606 0 00-2.186-.42c-.962-.043-1.267-.055-3.709-.055s-2.755 0-3.71.055a6.606 6.606 0 00-2.185.42A4.607 4.607 0 003.471 6.09a6.554 6.554 0 00-.419 2.185c-.043.963-.056 1.268-.056 3.71s0 2.754.056 3.71c.015.748.156 1.486.42 2.187a4.61 4.61 0 002.633 2.632 6.584 6.584 0 002.185.45c.963.043 1.268.056 3.71.056s2.755 0 3.71-.056a6.59 6.59 0 002.186-.419 4.615 4.615 0 002.633-2.633c.263-.7.404-1.438.42-2.187.042-.962.055-1.267.055-3.71-.002-2.442-.002-2.752-.058-3.709zm-8.953 8.297A4.622 4.622 0 017.37 11.98a4.622 4.622 0 114.623 4.623zM16.8 8.263a1.077 1.077 0 110-2.155 1.077 1.077 0 010 2.155z" fill="#FDFDFD"/><path d="M11.993 14.982a3.003 3.003 0 100-6.006 3.003 3.003 0 000 6.006z" fill="#FDFDFD"/></svg>