<svg width="16" height="13" fill="none" xmlns="http://www.w3.org/2000/svg"><path d="M16 1.534a6.632 6.632 0 01-1.64 1.69 9.334 9.334 0 01-.374 3.05 9.348 9.348 0 01-1.173 2.516 9.948 9.948 0 01-1.879 2.13c-.726.62-1.6 1.113-2.62 1.48a9.604 9.604 0 01-3.282.552A9.159 9.159 0 010 11.482c.272.03.533.046.783.046 1.522 0 2.88-.467 4.077-1.402a3.19 3.19 0 01-1.906-.652 3.215 3.215 0 01-1.159-1.62A3.31 3.31 0 003.277 7.8a3.2 3.2 0 01-1.884-1.127 3.158 3.158 0 01-.748-2.08v-.04c.464.256.96.393 1.487.41a3.257 3.257 0 01-1.067-1.167A3.184 3.184 0 01.67 2.241c0-.589.148-1.136.444-1.644a9.337 9.337 0 002.993 2.414A9.146 9.146 0 007.88 4.015a3.176 3.176 0 01-.087-.744c0-.903.321-1.674.962-2.313A3.168 3.168 0 0111.075 0c.95 0 1.748.344 2.397 1.032a6.55 6.55 0 002.084-.794 3.165 3.165 0 01-1.442 1.81A6.582 6.582 0 0016 1.534z" fill="#FDFDFD"/></svg>