<svg width="16" height="16" fill="none" xmlns="http://www.w3.org/2000/svg"><path d="M8.334 5c1.752 0 2.5.748 2.5 2.5H12.5c0-2.687-1.479-4.167-4.166-4.167V5zm2.851 4.536a.834.834 0 00-1.159.036l-1.994 2.05c-.48-.091-1.445-.392-2.438-1.383C4.6 9.245 4.299 8.278 4.21 7.801l2.05-1.995a.833.833 0 00.035-1.16L3.216 1.262a.833.833 0 00-1.16-.073L.25 2.74a.833.833 0 00-.242.541c-.013.208-.25 5.143 3.576 8.972 3.338 3.337 7.52 3.581 8.671 3.581.169 0 .272-.005.3-.006a.827.827 0 00.54-.243l1.55-1.809a.833.833 0 00-.072-1.16l-3.387-3.08z" fill="#4F4F4F"/><path d="M13.83 7.206l1.662.111C15.752 3.432 12.728.286 8.457 0l-.101 1.515c3.377.226 5.679 2.62 5.473 5.691z" fill="#4F4F4F"/></svg>