<svg width="16" height="12" fill="none" xmlns="http://www.w3.org/2000/svg"><path d="M14.889 0H.51A.512.512 0 000 .511v1.03c0 .047.051.101.093.123l7.558 4.317c.019.01.04.016.063.016a.127.127 0 00.065-.017l7.329-4.312c.041-.023.15-.084.191-.112.05-.033.101-.064.101-.125v-.92A.512.512 0 0014.889 0zm.447 3.091a.13.13 0 00-.13 0L11.06 5.533a.126.126 0 00-.057.148.127.127 0 00.028.05l4.148 4.47a.125.125 0 00.094.041.128.128 0 00.128-.127V3.202a.129.129 0 00-.064-.11zM9.865 6.352a.127.127 0 00-.158-.024l-1.663.978a.649.649 0 01-.641.005L5.94 6.475a.128.128 0 00-.15.017L.234 11.645a.128.128 0 00.023.204c.086.05.17.075.254.075h14.23a.127.127 0 00.118-.077.127.127 0 00-.024-.138l-4.97-5.357zm-5.298-.47a.128.128 0 00-.023-.204L.19 3.19a.128.128 0 00-.19.113v6.524a.127.127 0 00.215.093l4.352-4.038z" fill="#4F4F4F"/></svg>