<svg width="22" height="22" fill="none" xmlns="http://www.w3.org/2000/svg"><path d="M1.012 20.933l1.407-5.11a9.833 9.833 0 01-1.324-4.93c0-5.438 4.447-9.863 9.902-9.863a9.856 9.856 0 017.005 2.891 9.783 9.783 0 012.897 6.978c0 5.438-4.447 9.863-9.902 9.863h-.005a9.937 9.937 0 01-4.732-1.2l-5.248 1.371z" fill="url(#paint0_linear)"/><path d="M6.077 19.822L.725 21.22l1.433-5.209.006-.02-.01-.018a10.093 10.093 0 01-1.361-5.08v0C.793 5.287 5.374.728 11.003.728c2.732 0 5.297 1.058 7.22 2.979h0a10.06 10.06 0 012.987 7.191v0c0 5.607-4.582 10.167-10.211 10.167h-.005a10.25 10.25 0 01-4.88-1.239l-.018-.01-.019.006zm.553-1.575h0a8.625 8.625 0 004.364 1.193h.005c4.725 0 8.574-3.83 8.574-8.542 0-2.281-.89-4.425-2.508-6.042a8.527 8.527 0 00-6.066-2.504c-4.73 0-8.58 3.83-8.58 8.542 0 1.611.45 3.183 1.312 4.544 0 0 0 0 0 0l.19.304-.855 3.11-.023.084.083-.022 3.212-.842.292.175z" fill="#fff" stroke="#484848" stroke-width=".1"/><path d="M8.436 6.616c-.192-.426-.394-.436-.576-.44-.148-.006-.32-.006-.492-.006a.945.945 0 00-.684.319c-.236.255-.895.872-.895 2.131 0 1.255.92 2.47 1.048 2.641.128.172 1.776 2.832 4.378 3.856 2.164.853 2.607.681 3.074.637.472-.044 1.515-.617 1.731-1.215.212-.598.212-1.107.148-1.215-.064-.108-.236-.171-.492-.299-.256-.127-1.515-.745-1.751-.833-.236-.088-.408-.127-.575.127-.173.255-.665.829-.812 1-.148.172-.3.191-.556.064-.256-.128-1.082-.397-2.061-1.27-.762-.675-1.279-1.513-1.427-1.768-.147-.255-.014-.392.114-.52.113-.112.255-.298.383-.445.128-.147.172-.255.256-.427.084-.171.044-.318-.02-.445-.064-.128-.565-1.387-.791-1.892z" fill="#fff"/><defs><linearGradient id="paint0_linear" x1="10.955" y1="20.932" x2="10.955" y2="1.029" gradientUnits="userSpaceOnUse"><stop stop-color="#20B038"/><stop offset="1" stop-color="#60D66A"/></linearGradient></defs></svg>