<svg width="20" height="20" fill="none" xmlns="http://www.w3.org/2000/svg"><path d="M10 0C4.477 0 0 4.477 0 10s4.477 10 10 10 10-4.477 10-10S15.523 0 10 0z" fill="#40B3E0"/><path d="M14.865 5.752l-1.786 9.006s-.25.624-.937.325l-4.121-3.16-1.499-.725-2.523-.85s-.387-.137-.425-.436c-.037-.3.438-.462.438-.462L14.04 5.515s.824-.362.824.238" fill="#fff"/><path d="M7.705 14.656s-.12-.01-.27-.486a790.65 790.65 0 01-.912-2.972l6.058-3.847s.35-.212.337 0c0 0 .063.038-.125.212-.187.175-4.758 4.285-4.758 4.285" fill="#D2E5F1"/><path d="M9.602 13.134l-1.63 1.486s-.128.097-.267.037l.312-2.761" fill="#B5CFE4"/></svg>