<svg width="20" height="22" fill="none" xmlns="http://www.w3.org/2000/svg"><circle cx="10.5" cy="9.5" r="8.5" fill="#fff"/><path d="M19.42 4.837c-.372-1.328-1.108-2.378-2.187-3.12-1.362-.94-2.928-1.27-4.28-1.473-1.871-.279-3.566-.318-5.182-.12-1.515.185-2.655.48-3.695.959C2.038 2.02.814 3.536.44 5.588a28.018 28.018 0 00-.376 2.757C-.1 10.33.05 12.089.518 13.719c.458 1.588 1.256 2.723 2.44 3.469.302.19.689.327 1.063.46.212.074.418.146.587.226.157.073.157.086.155.216-.013 1.129 0 3.343 0 3.343l.004.472h.848l.137-.134c.092-.085 2.193-2.117 2.943-2.935l.102-.114c.129-.149.129-.149.26-.15 1.013-.02 2.047-.06 3.074-.116 1.244-.067 2.686-.188 4.043-.753 1.243-.519 2.15-1.343 2.696-2.448.569-1.153.906-2.401 1.032-3.817.223-2.489.065-4.648-.482-6.601zm-4.475 9.678c-.313.508-.777.861-1.326 1.09-.402.167-.811.132-1.207-.036-3.317-1.404-5.92-3.616-7.638-6.796-.355-.655-.6-1.37-.884-2.061-.057-.142-.054-.31-.08-.465.025-1.118.882-1.749 1.749-1.939.331-.074.625.043.87.28a7.598 7.598 0 011.624 2.245c.177.37.097.697-.204.972a2.76 2.76 0 01-.197.162c-.689.517-.79.91-.423 1.69.625 1.325 1.663 2.216 3.004 2.769.354.145.687.072.957-.214.037-.037.078-.074.104-.12.528-.88 1.296-.793 2.005-.291.465.331.917.68 1.376 1.017.702.516.696 1 .27 1.697zm-4.4-8.8a2.81 2.81 0 00-.466.039.476.476 0 11-.156-.94 3.745 3.745 0 014.312 4.312.476.476 0 01-.94-.156 2.793 2.793 0 00-2.75-3.255zm2.313 2.857a.477.477 0 01-.952 0c0-.787-.642-1.429-1.429-1.429a.477.477 0 010-.952 2.383 2.383 0 012.381 2.38zm2.72 1.058a.476.476 0 01-.93-.212A4.204 4.204 0 009.62 4.39a.474.474 0 01-.57-.359.474.474 0 01.36-.569 5.156 5.156 0 016.168 6.168z" fill="#834995"/></svg>