<svg width="22" height="31" fill="none" xmlns="http://www.w3.org/2000/svg"><path fill-rule="evenodd" clip-rule="evenodd" d="M1.571 27.9H20.43c.864 0 1.571.698 1.571 1.55 0 .852-.707 1.55-1.571 1.55H1.57C.707 31 0 30.302 0 29.45c0-.852.707-1.55 1.571-1.55zM11 7.75c-1.729 0-3.143 1.395-3.143 3.1s1.414 3.1 3.143 3.1c.834 0 1.633-.327 2.222-.908a3.075 3.075 0 000-4.384A3.165 3.165 0 0011 7.75zM11 0c5.139 0 11 3.813 11 11.082 0 4.62-3.347 9.486-10.041 14.555a1.574 1.574 0 01-1.918 0C3.347 20.553 0 15.701 0 11.082 0 3.813 5.861 0 11 0z" fill="url(#paint0_linear)"/><defs><linearGradient id="paint0_linear" x1="11" y1="0" x2="11" y2="31" gradientUnits="userSpaceOnUse"><stop stop-color="#FFDD6C"/><stop offset="1" stop-color="#FC0"/></linearGradient></defs></svg>