<svg width="56" height="44" fill="none" xmlns="http://www.w3.org/2000/svg"><path d="M0 2.256A2.248 2.248 0 012.24 0h51.52C54.997 0 56 1.01 56 2.256v3.385a2.248 2.248 0 01-2.24 2.256H2.24A2.248 2.248 0 010 5.641V2.256z" fill="url(#paint0_linear)"/><path d="M5.6 7.897h3.36v32.718H5.6V7.897z" fill="url(#paint1_linear)"/><path d="M47.04 7.897h3.36v32.718h-3.36V7.897z" fill="url(#paint2_linear)"/><path d="M0 42.308c0-.935.752-1.693 1.68-1.693h52.64c.928 0 1.68.758 1.68 1.693 0 .934-.752 1.692-1.68 1.692H1.68C.752 44 0 43.242 0 42.308z" fill="url(#paint3_linear)"/><path d="M12.32 13.539c0-.624.501-1.129 1.12-1.129h29.12c.619 0 1.12.505 1.12 1.129 0 .623-.501 1.128-1.12 1.128H13.44c-.619 0-1.12-.505-1.12-1.128z" fill="url(#paint4_linear)"/><path d="M12.32 20.308c0-.623.501-1.128 1.12-1.128h29.12c.619 0 1.12.505 1.12 1.128 0 .623-.501 1.128-1.12 1.128H13.44c-.619 0-1.12-.505-1.12-1.128z" fill="url(#paint5_linear)"/><path d="M12.32 27.077c0-.623.501-1.128 1.12-1.128h29.12c.619 0 1.12.505 1.12 1.128 0 .623-.501 1.128-1.12 1.128H13.44c-.619 0-1.12-.505-1.12-1.128z" fill="url(#paint6_linear)"/><path d="M12.32 33.846c0-.623.501-1.128 1.12-1.128h29.12c.619 0 1.12.505 1.12 1.128 0 .623-.501 1.128-1.12 1.128H13.44c-.619 0-1.12-.505-1.12-1.128z" fill="url(#paint7_linear)"/><defs><linearGradient id="paint0_linear" x1="28" y1="0" x2="28" y2="44" gradientUnits="userSpaceOnUse"><stop stop-color="#FFDD6C"/><stop offset="1" stop-color="#FC0"/></linearGradient><linearGradient id="paint1_linear" x1="28" y1="0" x2="28" y2="44" gradientUnits="userSpaceOnUse"><stop stop-color="#FFDD6C"/><stop offset="1" stop-color="#FC0"/></linearGradient><linearGradient id="paint2_linear" x1="28" y1="0" x2="28" y2="44" gradientUnits="userSpaceOnUse"><stop stop-color="#FFDD6C"/><stop offset="1" stop-color="#FC0"/></linearGradient><linearGradient id="paint3_linear" x1="28" y1="0" x2="28" y2="44" gradientUnits="userSpaceOnUse"><stop stop-color="#FFDD6C"/><stop offset="1" stop-color="#FC0"/></linearGradient><linearGradient id="paint4_linear" x1="28" y1="0" x2="28" y2="44" gradientUnits="userSpaceOnUse"><stop stop-color="#FFDD6C"/><stop offset="1" stop-color="#FC0"/></linearGradient><linearGradient id="paint5_linear" x1="28" y1="0" x2="28" y2="44" gradientUnits="userSpaceOnUse"><stop stop-color="#FFDD6C"/><stop offset="1" stop-color="#FC0"/></linearGradient><linearGradient id="paint6_linear" x1="28" y1="0" x2="28" y2="44" gradientUnits="userSpaceOnUse"><stop stop-color="#FFDD6C"/><stop offset="1" stop-color="#FC0"/></linearGradient><linearGradient id="paint7_linear" x1="28" y1="0" x2="28" y2="44" gradientUnits="userSpaceOnUse"><stop stop-color="#FFDD6C"/><stop offset="1" stop-color="#FC0"/></linearGradient></defs></svg>