<svg width="303" height="293" viewBox="0 0 303 293" fill="none" xmlns="http://www.w3.org/2000/svg">
<g filter="url(#filter0_ddddd)">
<path d="M179.529 174.463C178.74 174.715 177.896 174.279 177.644 173.49L173.545 160.627C173.293 159.838 173.729 158.994 174.518 158.743C175.307 158.491 176.151 158.927 176.403 159.716L180.047 171.149L191.48 167.505C192.27 167.254 193.114 167.689 193.365 168.479C193.617 169.268 193.181 170.112 192.392 170.363L179.529 174.463ZM101.51 67.0748L142.048 76.4429L141.373 79.3658L100.834 69.9978L101.51 67.0748ZM183.505 167.725L180.406 173.723L177.741 172.346L180.839 166.348L183.505 167.725ZM142.048 76.4429C182.557 85.8041 203.114 131.087 183.495 167.744L180.85 166.328C199.536 131.414 179.957 88.2823 141.373 79.3658L142.048 76.4429Z" fill="url(#paint0_linear)"/>
</g>
<defs>
<filter id="filter0_ddddd" x="0.511719" y="0.257568" width="301.933" height="292.527" filterUnits="userSpaceOnUse" color-interpolation-filters="sRGB">
<feFlood flood-opacity="0" result="BackgroundImageFix"/>
<feColorMatrix in="SourceAlpha" type="matrix" values="0 0 0 0 0 0 0 0 0 0 0 0 0 0 0 0 0 0 127 0"/>
<feOffset dy="1.13351"/>
<feGaussianBlur stdDeviation="1.37396"/>
<feColorMatrix type="matrix" values="0 0 0 0 1 0 0 0 0 0.921569 0 0 0 0 0 0 0 0 0.0310018 0"/>
<feBlend mode="normal" in2="BackgroundImageFix" result="effect1_dropShadow"/>
<feColorMatrix in="SourceAlpha" type="matrix" values="0 0 0 0 0 0 0 0 0 0 0 0 0 0 0 0 0 0 127 0"/>
<feOffset dy="2.86674"/>
<feGaussianBlur stdDeviation="3.47484"/>
<feColorMatrix type="matrix" values="0 0 0 0 1 0 0 0 0 0.921569 0 0 0 0 0 0 0 0 0.0443709 0"/>
<feBlend mode="normal" in2="effect1_dropShadow" result="effect2_dropShadow"/>
<feColorMatrix in="SourceAlpha" type="matrix" values="0 0 0 0 0 0 0 0 0 0 0 0 0 0 0 0 0 0 127 0"/>
<feOffset dy="5.84789"/>
<feGaussianBlur stdDeviation="7.08835"/>
<feColorMatrix type="matrix" values="0 0 0 0 1 0 0 0 0 0.921569 0 0 0 0 0 0 0 0 0.0556291 0"/>
<feBlend mode="normal" in2="effect2_dropShadow" result="effect3_dropShadow"/>
<feColorMatrix in="SourceAlpha" type="matrix" values="0 0 0 0 0 0 0 0 0 0 0 0 0 0 0 0 0 0 127 0"/>
<feOffset dy="12.0455"/>
<feGaussianBlur stdDeviation="14.6007"/>
<feColorMatrix type="matrix" values="0 0 0 0 1 0 0 0 0 0.921569 0 0 0 0 0 0 0 0 0.0689982 0"/>
<feBlend mode="normal" in2="effect3_dropShadow" result="effect4_dropShadow"/>
<feColorMatrix in="SourceAlpha" type="matrix" values="0 0 0 0 0 0 0 0 0 0 0 0 0 0 0 0 0 0 127 0"/>
<feOffset dy="33"/>
<feGaussianBlur stdDeviation="40"/>
<feColorMatrix type="matrix" values="0 0 0 0 1 0 0 0 0 0.921569 0 0 0 0 0 0 0 0 0.1 0"/>
<feBlend mode="normal" in2="effect4_dropShadow" result="effect5_dropShadow"/>
<feBlend mode="normal" in="SourceGraphic" in2="effect5_dropShadow" result="shape"/>
</filter>
<linearGradient id="paint0_linear" x1="130.537" y1="132.172" x2="185.52" y2="66.8626" gradientUnits="userSpaceOnUse">
<stop stop-color="#FFDD6C"/>
<stop offset="1" stop-color="#FFCC00"/>
</linearGradient>
</defs>
</svg>
